<svg width="33" height="37" viewBox="0 0 33 37" fill="none" xmlns="http://www.w3.org/2000/svg">
<path d="M18.9359 2.7884C18.5042 3.32771 18.1026 3.8315 17.7009 4.3326C17.1572 5.01079 16.6108 5.68342 16.0725 6.36432C15.966 6.50051 15.8485 6.56587 15.6763 6.58223C10.2312 7.0942 5.84606 10.8744 4.70402 16.2068C3.82154 20.3273 4.8789 23.9959 7.71762 27.1278C9.06727 28.6176 10.723 29.6742 12.6218 30.3469C12.7803 30.4041 12.8349 30.4504 12.7749 30.6329C12.4224 31.7304 12.0809 32.8307 11.7502 33.9337C11.6875 34.1434 11.5973 34.127 11.4333 34.0671C7.40341 32.621 4.35978 30.0283 2.34888 26.2618C0.824363 23.4076 0.217765 20.3437 0.594837 17.141C1.256 11.4953 4.14117 7.2767 9.12742 4.52597C12.0044 2.93826 15.1272 2.40175 18.3976 2.71217C18.5561 2.73123 18.7146 2.75847 18.9359 2.7884Z" fill="#141820"/>
<path d="M14.4385 34.7731C15.4194 33.5476 16.3784 32.352 17.3346 31.1509C17.4493 31.0066 17.6024 31.0339 17.7444 31.023C19.6898 30.8596 21.5094 30.2958 23.1541 29.2527C26.5993 27.0712 28.602 23.9638 28.9927 19.9032C29.531 14.3201 26.1622 9.11838 20.8454 7.23913C20.6241 7.1602 20.5558 7.09215 20.6351 6.84969C20.9738 5.8012 21.2963 4.74452 21.605 3.68785C21.676 3.44818 21.7662 3.41546 21.993 3.49718C26.0147 4.92972 29.0802 7.49516 31.0829 11.2481C34.3478 17.3731 33.3506 24.7563 28.5802 29.8273C25.9027 32.6761 22.5913 34.3429 18.6925 34.8331C17.3155 35.0046 15.9385 34.9801 14.5642 34.8112C14.5369 34.8112 14.5123 34.7977 14.4385 34.7731Z" fill="#141820"/>
<path d="M21.5552 0.996966C21.3203 1.76497 21.0854 2.53028 20.8503 3.29829C19.6564 7.1928 18.4625 11.0873 17.2604 14.9818C17.1947 15.197 17.2057 15.2569 17.4543 15.2842C18.7275 15.4258 19.9952 15.5919 21.2657 15.7417C21.4105 15.758 21.4952 15.8124 21.5716 15.935C22.5252 17.5092 23.4787 19.086 24.4459 20.652C24.5606 20.8372 24.4459 20.9216 24.3585 21.0306C22.6181 23.2039 20.8777 25.3772 19.1373 27.5505C16.804 30.4618 14.4735 33.3759 12.1376 36.2873C12.0556 36.3907 11.9982 36.5296 11.8042 36.5759C11.9354 36.1484 12.0556 35.7507 12.1812 35.3531C13.52 31.0446 14.856 26.7389 16.203 22.4331C16.2768 22.2016 16.2522 22.1417 16.0035 22.1145C14.7604 21.9756 13.5227 21.8122 12.2823 21.6679C12.0856 21.646 11.9654 21.5834 11.8589 21.4064C10.9354 19.8704 10.0009 18.3425 9.0611 16.8147C8.9573 16.6459 8.96271 16.5423 9.09114 16.3789C13.1594 11.327 17.2193 6.27224 21.2794 1.21479C21.3476 1.13038 21.4187 1.05144 21.4897 0.969727C21.5143 0.983301 21.5334 0.988785 21.5552 0.996966Z" fill="#141820"/>
</svg>
